<svg width="268" height="170" viewBox="0 0 268 170" fill="none" xmlns="http://www.w3.org/2000/svg">
<path d="M75.1668 139.741C48.2968 139.841 22.4368 121.961 14.3668 97.6906C11.3268 88.5406 11.1968 77.2606 18.6468 70.7506C24.4368 65.6906 32.9668 65.0406 40.7368 63.8006C48.5068 62.5606 57.1668 59.6206 59.9768 52.6406C62.0868 47.4106 60.1868 41.6006 59.7268 36.0106C58.5868 22.1606 67.5668 8.07057 81.0468 2.58057C94.5268 -2.90943 111.507 0.590578 121.347 10.8906C125.247 14.9706 128.027 19.9006 131.607 24.2406C135.177 28.5806 139.927 32.5106 145.677 33.3006C155.617 34.6706 163.847 26.6906 172.707 22.2106C189.117 13.9106 211.617 18.7606 222.617 32.9606C227.167 38.8306 229.897 45.9906 235.397 51.0806C240.747 56.0306 248.127 58.4906 254.057 62.8106C267.427 72.5806 271.237 91.4306 264.957 106.271C258.677 121.111 243.837 131.771 227.617 136.181C211.387 140.601 193.937 139.361 177.557 135.491C170.997 133.941 164.267 131.961 157.597 133.021C150.597 134.141 144.727 138.451 138.567 141.771C116.507 153.671 87.4868 152.921 66.1468 139.911L75.1668 139.721V139.741Z" fill="#CCEBE1"/>
<path d="M137.167 169.94C204.181 169.94 258.507 167.353 258.507 164.16C258.507 160.968 204.181 158.38 137.167 158.38C70.1526 158.38 15.8268 160.968 15.8268 164.16C15.8268 167.353 70.1526 169.94 137.167 169.94Z" fill="#B5D5CA"/>
<path d="M16.1668 73.7905C16.1668 73.9105 16.1668 74.0305 16.1668 74.1505C15.7368 88.7905 17.2368 100.191 19.7768 109.081L27.3168 113.771L21.1168 112.811L20.9368 112.781C24.2968 122.551 28.9568 128.861 33.3468 132.921C36.0768 135.451 38.7168 137.111 40.8768 138.181C41.0168 138.251 41.1568 138.321 41.2968 138.391C41.6468 138.561 41.9868 138.711 42.3068 138.841L46.4568 139.061C46.5168 138.871 46.5668 138.681 46.6168 138.481C46.6568 138.361 46.6868 138.241 46.7168 138.121C46.7668 137.961 46.8068 137.801 46.8468 137.641C51.7468 118.751 45.5668 103.681 37.4968 92.9405C37.4768 92.9005 37.4468 92.8705 37.4168 92.8305C34.6068 89.1005 31.5668 85.9005 28.6968 83.2405L26.8668 87.9105L26.6068 81.3705C21.5968 77.0505 17.4368 74.5305 16.4168 73.9305C16.2568 73.8405 16.1768 73.7905 16.1768 73.7905H16.1668Z" fill="#4E6A5F"/>
<path d="M16.0269 73.8607L16.1669 74.1507L24.6769 91.9807L24.8369 92.3007L27.1569 97.1607L27.2369 97.3307L34.6469 112.831L34.6569 112.851L46.7169 138.121L46.9069 138.501L47.1869 139.101L47.5569 139.121L47.2669 138.521L46.8469 137.641L34.9369 112.711L34.7169 112.241L16.4169 73.9307L16.3169 73.7207L16.0269 73.8607Z" fill="white"/>
<path d="M16.7265 89.9725L16.5678 90.2031L27.1293 97.47L27.288 97.2393L16.7265 89.9725Z" fill="white"/>
<path d="M16.6628 86.4568L16.5041 86.6875L24.7846 92.3828L24.9432 92.1521L16.6628 86.4568Z" fill="white"/>
<path d="M37.2412 92.827L34.6418 112.869L34.9195 112.905L37.5189 92.863L37.2412 92.827Z" fill="white"/>
<path d="M48.1269 142.301C48.1269 142.301 38.2969 146.951 24.3069 138.601L28.8469 136.451L21.4469 136.751C15.9869 132.931 9.99687 127.111 3.77687 118.351L5.50687 117.531L3.26687 117.621C2.21687 116.121 1.16687 114.541 0.106873 112.871C0.106873 112.871 4.21687 112.511 10.0869 113.181L13.0969 117.261L12.2469 113.471C24.2569 115.291 41.7369 121.581 48.1469 142.301H48.1269Z" fill="#4E6A5F"/>
<path d="M0.156451 112.744L0 113.011L48.7855 141.531L48.942 141.263L0.156451 112.744Z" fill="white"/>
<path d="M12.7864 120.26L5.80347 120.98L5.83323 121.268L12.8162 120.548L12.7864 120.26Z" fill="white"/>
<path d="M16.0818 122.168L7.94 123.618L7.99086 123.904L16.1327 122.453L16.0818 122.168Z" fill="white"/>
<path d="M36.6368 124.371L36.8868 124.091C32.7868 120.451 27.8068 117.611 22.0668 115.651L21.9468 116.001C27.6368 117.941 32.5768 120.761 36.6368 124.361V124.371Z" fill="#2E4882"/>
<path d="M111.107 30.9404H49.1569C47.3951 30.9404 45.9669 32.3686 45.9669 34.1304V160.17C45.9669 161.932 47.3951 163.36 49.1569 163.36H111.107C112.869 163.36 114.297 161.932 114.297 160.17V34.1304C114.297 32.3686 112.869 30.9404 111.107 30.9404Z" fill="#353535"/>
<path d="M108.167 30.9404H46.2169C44.4551 30.9404 43.0269 32.3686 43.0269 34.1304V160.17C43.0269 161.932 44.4551 163.36 46.2169 163.36H108.167C109.929 163.36 111.357 161.932 111.357 160.17V34.1304C111.357 32.3686 109.929 30.9404 108.167 30.9404Z" fill="#515151"/>
<path d="M47.9568 46.6404V146.55C47.9568 148.58 49.4968 150.23 51.4068 150.23H103.457C105.357 150.23 106.907 148.58 106.907 146.55V46.6404C106.907 44.6104 105.367 42.9604 103.457 42.9604H51.4068C49.5068 42.9604 47.9568 44.6104 47.9568 46.6404Z" fill="#AED6C9"/>
<path d="M46.4669 146.55V46.6402C46.4669 44.2002 48.3869 42.2202 50.7369 42.2202H104.117C106.477 42.2202 108.387 44.2002 108.387 46.6402V146.55C108.387 148.99 106.467 150.97 104.117 150.97H50.7369C48.3769 150.97 46.4669 148.99 46.4669 146.55ZM50.7369 43.7002C49.1969 43.7002 47.9369 45.0202 47.9369 46.6502V146.56C47.9369 148.18 49.1969 149.51 50.7369 149.51H104.117C105.657 149.51 106.917 148.19 106.917 146.56V46.6502C106.917 45.0302 105.657 43.7002 104.117 43.7002H50.7369Z" fill="white"/>
<path d="M108.177 163.62H57.6769V163.12H108.177C109.797 163.12 111.117 161.8 111.117 160.18V34.1304C111.117 32.5104 109.797 31.1904 108.177 31.1904H46.2169V30.6904H108.177C110.077 30.6904 111.617 32.2304 111.617 34.1304V160.18C111.617 162.08 110.077 163.62 108.177 163.62Z" fill="#4B4B4B"/>
<path d="M43.2769 38.6006H42.7769V68.5606H43.2769V38.6006Z" fill="#BB4871"/>
<path d="M145.357 23.9505C136.647 24.2005 129.797 31.4505 130.037 40.1605C130.287 48.8705 137.537 55.7305 146.247 55.4805C154.957 55.2305 161.817 47.9805 161.567 39.2705C161.317 30.5605 154.067 23.7105 145.357 23.9505ZM158.497 39.3605C158.597 42.7505 157.367 45.9705 155.027 48.4405C152.697 50.9005 149.557 52.3205 146.157 52.4105C139.157 52.6105 133.307 47.0805 133.107 40.0805C133.007 36.6905 134.237 33.4705 136.567 31.0005C138.817 28.6205 141.827 27.2205 145.077 27.0405C145.197 27.0405 145.307 27.0405 145.427 27.0305C152.307 26.8305 158.077 32.1805 158.457 39.0105C158.457 39.1305 158.467 39.2405 158.477 39.3605H158.497Z" fill="#FCC659"/>
<path d="M158.477 39.0103C158.477 39.1303 158.487 39.2403 158.497 39.3603C158.597 42.7503 157.367 45.9703 155.027 48.4403C152.697 50.9003 149.557 52.3203 146.157 52.4103C139.157 52.6103 133.307 47.0803 133.107 40.0803C133.007 36.6903 134.237 33.4703 136.567 31.0003C138.817 28.6203 141.827 27.2203 145.077 27.0403C145.197 27.0403 145.307 27.0403 145.427 27.0303C152.307 26.8303 158.087 32.1803 158.457 39.0103H158.477Z" fill="#F49B51"/>
<path d="M145.547 49.4502L145.417 47.0602C144.047 47.1102 142.607 46.7702 141.747 46.2202L142.227 44.6102C143.107 45.1302 144.357 45.5102 145.687 45.4402C147.367 45.3502 148.447 44.3202 148.367 42.9702C148.297 41.6702 147.327 40.9202 145.547 40.3102C143.087 39.5002 141.537 38.5002 141.427 36.4402C141.317 34.4802 142.627 32.9102 144.777 32.4402L144.647 30.0502L146.107 29.9702L146.237 32.2602C147.657 32.2302 148.647 32.5502 149.357 32.9202L148.857 34.5102C148.347 34.2502 147.347 33.7902 145.837 33.8702C144.017 33.9702 143.397 35.1002 143.447 36.0402C143.517 37.2702 144.427 37.8302 146.527 38.5702C149.017 39.4302 150.307 40.5902 150.427 42.6902C150.527 44.5602 149.327 46.3802 146.917 46.9102L147.057 49.3702L145.567 49.4502H145.547Z" fill="#FCC659"/>
<path d="M157.787 35.8703C157.757 35.7703 157.717 35.6703 157.687 35.5703C156.487 32.1503 153.877 29.4303 150.527 28.0803L150.657 27.7603C154.107 29.1503 156.787 31.9503 158.007 35.4403C158.047 35.5603 158.087 35.6703 158.117 35.7703L157.787 35.8703Z" fill="#2E4882"/>
<path d="M150.517 28.0706C147.817 26.9806 144.807 26.8706 142.037 27.7606L141.937 27.4306C144.787 26.5206 147.877 26.6306 150.647 27.7506L150.517 28.0706Z" fill="#2E4882"/>
<path d="M157.297 45.5802L156.987 45.4202C157.747 43.9402 158.207 42.3602 158.347 40.7202L158.687 40.7502C158.547 42.4302 158.077 44.0602 157.297 45.5802Z" fill="#2E4882"/>
<path d="M155.407 27.4305C154.127 26.4305 152.717 25.6405 151.197 25.0805L151.327 24.7305C152.877 25.3005 154.327 26.1105 155.627 27.1305L155.397 27.4205L155.407 27.4305Z" fill="#2E4882"/>
<path d="M155.427 52.4504L155.207 52.1604C159.217 49.1204 161.527 44.3104 161.387 39.2804C161.297 36.1604 160.297 33.1704 158.477 30.6404L158.777 30.4204C160.637 33.0104 161.667 36.0604 161.757 39.2604C161.907 44.4004 159.537 49.3304 155.427 52.4404V52.4504Z" fill="#2E4882"/>
<path d="M183.557 53.2106C176.227 52.6206 169.807 58.0906 169.217 65.4206C168.627 72.7506 174.097 79.1706 181.427 79.7606C188.757 80.3506 195.177 74.8806 195.767 67.5506C196.357 60.2206 190.887 53.8006 183.557 53.2106ZM193.177 67.3406C192.947 70.1906 191.617 72.7906 189.437 74.6406C187.257 76.5006 184.487 77.3906 181.627 77.1706C175.737 76.7006 171.327 71.5206 171.797 65.6306C172.027 62.7806 173.347 60.1806 175.537 58.3306C177.637 56.5406 180.297 55.6406 183.047 55.7906C183.147 55.7906 183.247 55.8006 183.347 55.8106C189.147 56.2706 193.497 61.2906 193.197 67.0606C193.197 67.1606 193.187 67.2506 193.177 67.3506V67.3406Z" fill="#FCC659"/>
<path d="M193.197 67.0505C193.197 67.1505 193.187 67.2405 193.177 67.3405C192.947 70.1905 191.617 72.7905 189.437 74.6405C187.257 76.5005 184.487 77.3905 181.627 77.1705C175.737 76.7005 171.327 71.5205 171.797 65.6305C172.027 62.7805 173.347 60.1805 175.537 58.3305C177.637 56.5405 180.297 55.6405 183.047 55.7905C183.147 55.7905 183.247 55.8005 183.347 55.8105C189.147 56.2705 193.497 61.2905 193.197 67.0605V67.0505Z" fill="#F49B51"/>
<path d="M181.387 74.6405L181.497 72.6305C180.337 72.5505 179.167 72.1305 178.497 71.5905L179.047 70.2805C179.737 70.8005 180.757 71.2305 181.877 71.2905C183.297 71.3605 184.297 70.6005 184.357 69.4605C184.417 68.3605 183.677 67.6405 182.227 66.9705C180.237 66.0605 179.027 65.0805 179.117 63.3505C179.207 61.6905 180.447 60.5005 182.297 60.3005L182.407 58.2905L183.647 58.3605L183.547 60.2905C184.737 60.3905 185.547 60.7605 186.107 61.1305L185.537 62.4205C185.127 62.1605 184.337 61.6805 183.057 61.6105C181.517 61.5305 180.897 62.4205 180.857 63.2105C180.807 64.2505 181.517 64.8005 183.207 65.6105C185.217 66.5605 186.197 67.6505 186.107 69.4205C186.027 71.0005 184.847 72.4105 182.777 72.6405L182.667 74.7105L181.407 74.6405H181.387Z" fill="#FCC659"/>
<path d="M192.897 64.3504C192.877 64.2604 192.857 64.1704 192.837 64.0904C192.147 61.1104 190.207 58.5904 187.507 57.1404L187.647 56.8804C190.417 58.3604 192.407 60.9504 193.117 64.0004C193.137 64.1104 193.167 64.2004 193.177 64.2904L192.897 64.3504Z" fill="#2E4882"/>
<path d="M187.507 57.1405C185.337 55.9805 182.827 55.6205 180.417 56.1105L180.357 55.8305C182.827 55.3205 185.417 55.7005 187.637 56.8905L187.497 57.1505L187.507 57.1405Z" fill="#2E4882"/>
<path d="M191.597 72.4605L191.357 72.3005C192.137 71.1305 192.657 69.8405 192.927 68.4805L193.217 68.5405C192.947 69.9405 192.407 71.2605 191.607 72.4605H191.597Z" fill="#2E4882"/>
<path d="M191.677 57.0506C190.697 56.1006 189.577 55.3006 188.357 54.6906L188.497 54.4106C189.747 55.0306 190.887 55.8406 191.887 56.8206L191.667 57.0406L191.677 57.0506Z" fill="#2E4882"/>
<path d="M189.407 78.0504L189.247 77.7803C192.897 75.6003 195.277 71.7703 195.607 67.5303C195.817 64.9003 195.247 62.3004 193.957 60.0104L194.227 59.8604C195.547 62.2004 196.137 64.8604 195.917 67.5504C195.567 71.8804 193.137 75.8004 189.397 78.0404L189.407 78.0504Z" fill="#2E4882"/>
<path d="M173.577 58.8204C174.167 59.4004 174.467 60.1004 174.587 60.8904C175.137 60.3104 175.797 59.9204 176.607 59.7804C176.017 59.2004 175.707 58.5004 175.597 57.7104C175.047 58.2904 174.397 58.6804 173.577 58.8204Z" fill="#FFE6A6"/>
<path d="M119.827 103.11C124.157 102.45 139.907 96.4304 139.907 96.4304C139.907 96.4304 138.747 94.1804 134.577 94.7804C130.407 95.3804 119.757 98.0905 119.757 98.0905L119.827 103.12V103.11Z" fill="#FCB47E"/>
<path d="M121.947 66.4306C112.817 66.1206 105.167 73.2806 104.857 82.4206C104.547 91.5506 111.707 99.2106 120.847 99.5106C129.977 99.8206 137.637 92.6606 137.937 83.5206C138.247 74.3906 131.087 66.7406 121.947 66.4306ZM134.707 83.4106C134.587 86.9606 133.087 90.2606 130.487 92.6906C127.887 95.1206 124.507 96.3906 120.947 96.2806C113.607 96.0306 107.837 89.8606 108.087 82.5206C108.207 78.9706 109.697 75.6706 112.297 73.2406C114.807 70.9006 118.047 69.6306 121.467 69.6506C121.587 69.6506 121.717 69.6506 121.837 69.6506C129.057 69.8906 134.757 75.8706 134.707 83.0406C134.707 83.1606 134.707 83.2806 134.707 83.4006V83.4106Z" fill="#FCC659"/>
<path d="M134.717 83.0506C134.717 83.1706 134.717 83.2906 134.717 83.4106C134.597 86.9606 133.097 90.2606 130.497 92.6906C127.897 95.1206 124.517 96.4006 120.957 96.2806C113.617 96.0306 107.847 89.8606 108.097 82.5206C108.217 78.9706 109.707 75.6706 112.307 73.2406C114.817 70.9006 118.057 69.6306 121.477 69.6506C121.597 69.6506 121.727 69.6506 121.847 69.6506C129.067 69.8906 134.767 75.8706 134.717 83.0406V83.0506Z" fill="#F49B51"/>
<path d="M120.487 93.1505L120.507 90.6405C119.067 90.6105 117.577 90.1505 116.717 89.5205L117.327 87.8605C118.217 88.4605 119.507 88.9405 120.897 88.9505C122.657 88.9605 123.857 87.9505 123.867 86.5405C123.867 85.1805 122.917 84.3305 121.077 83.5705C118.557 82.5605 116.997 81.4105 117.007 79.2505C117.017 77.1905 118.497 75.6405 120.777 75.2805L120.797 72.7705H122.337L122.317 75.1905C123.807 75.2505 124.817 75.6505 125.537 76.0805L124.907 77.7105C124.387 77.4105 123.377 76.8605 121.787 76.8505C119.877 76.8405 119.147 77.9705 119.147 78.9705C119.147 80.2605 120.057 80.9105 122.207 81.8205C124.757 82.8805 126.037 84.1805 126.027 86.3905C126.017 88.3505 124.637 90.1805 122.077 90.5805L122.057 93.1605H120.497L120.487 93.1505Z" fill="#FCC659"/>
<path d="M134.187 79.7105C134.157 79.6005 134.127 79.4905 134.097 79.3905C133.067 75.7305 130.507 72.7105 127.077 71.0805L127.237 70.7505C130.757 72.4305 133.387 75.5305 134.437 79.2705C134.477 79.4005 134.507 79.5105 134.537 79.6305L134.187 79.7205V79.7105Z" fill="#2E4882"/>
<path d="M127.087 71.0808C124.327 69.7708 121.187 69.4608 118.227 70.2108L118.137 69.8608C121.177 69.0908 124.407 69.4108 127.237 70.7608L127.077 71.0908L127.087 71.0808Z" fill="#2E4882"/>
<path d="M133.047 89.8508L132.737 89.6708C133.627 88.1708 134.217 86.5408 134.457 84.8408L134.817 84.8908C134.557 86.6408 133.967 88.3108 133.047 89.8508Z" fill="#2E4882"/>
<path d="M132.247 70.7304C130.977 69.6004 129.547 68.6804 127.997 68.0004L128.157 67.6504C129.747 68.3504 131.207 69.2904 132.507 70.4504L132.247 70.7404V70.7304Z" fill="#2E4882"/>
<path d="M130.647 96.9206L130.437 96.6006C134.837 93.6806 137.567 88.7906 137.747 83.5206C137.857 80.2406 136.997 77.0506 135.257 74.2906L135.587 74.0806C137.367 76.9106 138.247 80.1806 138.127 83.5306C137.947 88.9306 135.147 93.9306 130.647 96.9206Z" fill="#2E4882"/>
<path d="M125.757 94.5105C125.757 94.5105 125.367 89.9104 118.747 89.6104C113.617 89.3804 111.927 86.5704 107.697 86.1704C103.617 85.7904 99.4268 87.8204 99.4268 87.8204C99.4268 87.8204 97.3568 88.6504 95.3068 88.8504C91.2968 89.2404 88.2468 87.4204 88.2468 87.4204L88.3168 101.58C88.3168 101.58 99.1068 100.65 101.347 101.18C103.597 101.71 114.117 106.27 118.447 105.61C122.777 104.95 138.527 98.9304 138.527 98.9304C138.527 98.9304 137.567 96.2804 133.397 96.8804C129.227 97.4804 125.527 98.8004 124.267 98.8604C123.007 98.9304 121.887 98.4604 121.887 98.4604L111.897 94.2904C116.827 94.8004 121.487 94.9304 125.757 94.4904V94.5105Z" fill="#FFC49C"/>
<path d="M69.8268 94.2808C69.8268 97.9208 69.9768 101.431 70.2468 104.691C70.2468 104.711 70.2468 104.741 70.2468 104.761C71.3068 117.281 74.1968 126.271 77.5968 126.271C80.9968 126.271 84.0968 116.661 85.0568 103.481V103.341L85.2268 88.0108V87.8908C84.5068 73.2908 81.3568 62.3008 77.5968 62.3008C73.8368 62.3008 70.8568 72.7008 70.0368 86.7208C70.0368 86.7408 70.0368 86.7608 70.0368 86.7908C69.8968 89.2008 69.8168 91.7108 69.8168 94.3008L69.8268 94.2808Z" fill="#576E91"/>
<path d="M86.4369 106.981C84.9369 120.451 81.1769 129.381 76.9169 129.381C73.2869 129.381 70.0169 123.041 68.1769 112.431L68.6469 112.361C70.4269 122.591 73.5969 128.951 76.9169 128.951C80.8469 128.951 84.4869 120.021 85.9469 107.021L86.4269 106.971L86.4369 106.981Z" fill="#576E90"/>
<path d="M66.9169 101.2C66.7869 98.9504 66.7269 96.6204 66.7269 94.2804C66.7269 91.5504 66.8169 88.7904 67.0069 86.0704C67.0069 86.0704 67.0069 86.0504 67.0069 86.0304V86.0004C67.2669 82.2404 67.7069 78.6804 68.2969 75.4204L68.7669 75.4904C68.1769 78.7404 67.7369 82.2904 67.4769 86.0304C67.4769 86.0304 67.4769 86.0504 67.4769 86.0704V86.1004C67.2869 88.8104 67.1969 91.5604 67.1969 94.2804C67.1969 96.6104 67.2669 98.9304 67.3869 101.18L66.9069 101.2H66.9169Z" fill="#576E90"/>
<path d="M86.4968 82.1906H86.0269C84.6169 68.9106 80.9369 59.5806 76.9169 59.5806C74.4069 59.5806 71.9268 63.2506 70.1068 69.6606L69.6469 69.5606C71.5569 62.8506 74.1368 59.1606 76.9268 59.1606C79.2968 59.1606 81.5068 61.8006 83.3168 66.7806C84.7668 70.7906 85.8769 76.1706 86.5069 82.1906H86.4968Z" fill="#576E90"/>
<path d="M132.627 34.8305C133.887 35.4705 134.747 36.4505 135.337 37.6705C135.927 36.4405 136.797 35.4605 138.047 34.8205C136.787 34.1805 135.927 33.2005 135.337 31.9805C134.747 33.2105 133.887 34.1905 132.627 34.8305Z" fill="#FFE6A6"/>
<path d="M136.937 42.2806C137.667 42.6506 138.167 43.2206 138.507 43.9306C138.847 43.2206 139.357 42.6506 140.087 42.2706C139.357 41.9006 138.857 41.3306 138.507 40.6206C138.167 41.3306 137.657 41.9006 136.937 42.2806Z" fill="#FFE6A6"/>
<path d="M88.2469 90.3706L88.2969 101.601C88.2969 101.601 90.0769 101.451 92.3269 101.301C92.2069 98.7106 91.7669 92.1906 90.1669 89.1306C89.7669 88.3706 89.0869 88.9506 88.2369 90.3706H88.2469Z" fill="#FFA87D"/>
<path d="M120.467 95.0308C117.977 95.0308 115.217 94.8708 111.927 94.5308L111.977 94.0308C115.977 94.4408 119.187 94.5908 122.067 94.5108V95.0108C121.557 95.0308 121.017 95.0308 120.467 95.0308Z" fill="#2E4882"/>
<path d="M124.017 99.1405C122.827 99.1405 121.837 98.7406 121.787 98.7206L117.717 97.0206L117.907 96.5605L121.977 98.2606C121.977 98.2606 123.067 98.7105 124.247 98.6405C124.757 98.6105 125.717 98.3606 126.947 98.0406C128.627 97.6006 130.937 97.0006 133.357 96.6606C137.667 96.0406 138.747 98.8406 138.757 98.8706L138.287 99.0406C138.247 98.9406 137.327 96.6006 133.427 97.1506C131.027 97.4906 128.747 98.0906 127.077 98.5206C125.777 98.8606 124.837 99.1006 124.277 99.1306C124.187 99.1306 124.097 99.1306 124.017 99.1306V99.1405Z" fill="#2E4882"/>
<path d="M96.4668 89.7108L96.1868 89.2908C98.6768 87.6508 102.317 86.6108 102.477 86.5708L102.607 87.0508C102.607 87.0508 98.8868 88.1108 96.4568 89.7108H96.4668Z" fill="#2E4882"/>
<path d="M90.4769 100.621C90.3569 101.691 90.1969 102.761 90.0069 103.841L86.6269 104.191L85.5669 104.301L84.9769 104.361L70.5469 105.851C70.5469 105.851 70.5469 105.801 70.5469 105.771C70.2469 101.781 70.0969 97.5108 70.0969 93.0608C70.0969 90.0808 70.1669 87.1808 70.3069 84.3908C70.3069 84.2308 70.3269 84.0708 70.3269 83.9108C70.3269 83.8908 70.3269 83.8608 70.3269 83.8408H70.3469L85.1569 85.2108L85.6769 85.2608L86.8169 85.3608L90.0169 85.6508C90.9169 90.5008 91.0969 95.4908 90.4869 100.631L90.4769 100.621Z" fill="#6DA1F0"/>
<path d="M90.4769 100.62C90.3469 101.69 90.1869 102.76 89.9869 103.84L86.4669 104.19L85.5669 104.28L84.7569 104.36L70.5369 105.77H70.4669C70.4369 105.4 70.3969 105.02 70.3669 104.63C70.3669 104.61 70.3669 104.58 70.3669 104.55C70.0769 101.27 69.9269 97.7504 69.9269 94.0904C69.9269 91.4904 70.0069 88.9604 70.1569 86.5404C70.1569 86.5204 70.1569 86.5004 70.1569 86.4704C70.1969 85.7604 70.2469 85.0704 70.2969 84.3804C70.2969 84.2204 70.3169 84.0604 70.3169 83.9004H70.3269L71.8769 84.0404C72.1669 87.3204 73.1969 95.9104 76.0869 98.2704C78.0869 99.9004 82.3169 100.41 85.6669 100.54C88.3169 100.64 90.4269 100.51 90.4269 100.51L90.4769 100.62Z" fill="#4981D6"/>
<path d="M214.377 50.8907C214.377 50.8907 213.097 49.9207 213.807 48.5807C214.317 47.6107 216.047 47.2407 216.047 47.2407C215.527 47.9007 215.297 49.8307 214.777 50.4907L214.377 50.8807V50.8907Z" fill="#374263"/>
<path d="M218.667 64.0909C218.667 64.0909 220.607 59.7709 218.407 56.5609L222.357 54.3809C222.357 54.3809 223.577 60.8309 226.387 66.3609C224.257 68.2509 218.977 68.1809 218.667 64.0909Z" fill="#FFC49C"/>
<path d="M218.407 56.5608C219.177 57.6908 219.437 58.9508 219.457 60.1208C221.337 58.7908 222.877 55.8408 222.877 55.8408L218.407 56.5608Z" fill="#374263"/>
<path d="M223.257 56.4508C222.557 57.3508 219.447 59.9308 217.317 59.6508C214.617 59.3008 212.997 49.5608 215.257 47.7108C216.467 46.7208 219.837 46.8908 221.737 49.1108C223.627 51.3308 224.197 55.2508 223.257 56.4508Z" fill="#FFC49C"/>
<path d="M206.687 153.771C214.217 157.051 221.087 153.771 221.087 153.771L213.667 151.491L206.687 153.771Z" fill="#374263"/>
<path d="M243.567 149.981C243.567 149.981 238.927 155.831 229.677 154.271L229.827 148.511L243.567 149.971V149.981Z" fill="#88274A"/>
<path d="M243.807 153.941L241.567 148.991L236.157 150.831L239.027 155.401C240.247 157.181 243.787 156.161 243.817 153.941H243.807Z" fill="#FFC49C"/>
<path d="M215.887 157.651L216.877 152.241H211.157L210.887 157.491C211.467 159.571 215.147 159.741 215.897 157.651H215.887Z" fill="#FFC49C"/>
<path d="M243.567 149.98C239.517 152.35 234.897 153.78 229.677 154.27C229.677 154.27 210.027 125.79 214.267 91.7104H228.667C228.667 91.7104 225.167 118.06 243.567 149.98Z" fill="#BB4871"/>
<path d="M218.437 130.291C220.717 137.321 223.427 143.161 225.607 147.321L230.277 115.201C229.397 110.801 228.907 106.871 228.657 103.551L227.187 97.8506L218.437 130.291Z" fill="#88274A"/>
<path d="M206.527 153.831C211.057 154.441 215.837 154.511 220.927 153.831L228.827 107.151C228.827 107.151 232.247 103.541 233.097 98.3107C233.357 96.7507 233.377 95.0607 233.017 93.2707C232.927 92.7807 232.797 92.2807 232.637 91.7807L232.147 91.7107L226.247 90.8907L224.857 90.7007L214.067 89.2007L206.537 153.831H206.527Z" fill="#BB4871"/>
<path d="M216.637 92.4104C220.207 96.6504 229.467 97.9504 233.097 98.3004C233.357 96.7404 233.377 95.0504 233.017 93.2604L232.147 91.7004L226.247 90.8804L224.857 90.6904L216.637 92.4104Z" fill="#88274A"/>
<path d="M212.687 91.3505C213.537 91.8705 214.477 92.3305 215.497 92.7605C216.857 93.3205 218.337 93.8105 219.857 94.2205C227.237 96.2105 235.547 96.5505 235.547 96.5505C232.447 86.1605 235.057 76.6805 232.887 69.1905C231.407 64.1105 226.637 61.7505 226.637 61.7505C225.027 62.8205 220.807 64.7405 219.027 63.1305C218.797 62.9205 218.447 62.9505 218.257 63.1905C210.827 72.8205 213.037 77.3405 213.097 84.4905C213.127 87.6805 212.687 91.3705 212.687 91.3705V91.3505Z" fill="white"/>
<path d="M228.809 107.07L223.042 142.909L223.418 142.97L229.184 107.13L228.809 107.07Z" fill="white"/>
<path d="M214.447 48.7407C214.107 47.6707 214.787 47.2207 215.557 46.4107C216.347 45.5807 217.607 45.5307 218.687 45.7507C219.687 45.9507 220.677 46.3607 221.417 47.1007C222.707 48.3907 222.987 51.8907 220.727 51.9907C217.157 52.1507 215.037 50.5907 214.457 48.7507L214.447 48.7407Z" fill="#374263"/>
<path d="M222.227 54.3106C221.737 52.8506 220.557 51.9706 219.647 50.7206L214.837 47.7206C216.017 45.9206 219.727 44.5106 222.147 45.3906C224.737 46.3406 226.247 49.0006 227.617 52.9906C228.427 55.3606 229.917 56.8806 230.667 57.5906C237.587 64.1606 237.817 70.9006 233.607 73.5306C230.457 75.5006 227.897 74.3806 226.347 73.2806C221.657 69.9406 221.677 57.6806 222.227 54.3006V54.3106Z" fill="#374263"/>
<path d="M217.777 52.9404C219.237 53.1604 220.587 52.7204 220.667 52.7004L220.577 52.4304C220.577 52.4304 218.177 53.2004 216.417 52.1904C215.497 51.6604 214.907 50.7404 214.637 49.4404L214.357 49.5004C214.637 50.8804 215.287 51.8604 216.277 52.4404C216.757 52.7204 217.267 52.8704 217.777 52.9504V52.9404Z" fill="#374263"/>
<path d="M220.557 53.3008C220.447 53.9908 220.927 54.6408 221.617 54.7408C222.307 54.8508 222.957 54.3708 223.057 53.6808C223.167 52.9908 222.687 52.3408 221.997 52.2408C221.307 52.1308 220.657 52.6108 220.557 53.3008Z" fill="#FFC49C"/>
<path d="M234.057 163.361H240.797C240.987 163.361 241.177 163.291 241.307 163.151L247.607 156.551C247.847 156.301 247.847 155.901 247.607 155.651L244.717 152.861C244.367 152.511 243.537 152.591 243.577 153.091C243.757 155.501 240.897 155.921 239.147 155.531C238.927 155.481 238.697 155.621 238.637 155.841C238.387 156.741 238.067 158.821 237.647 159.381C236.917 160.361 235.807 160.581 234.937 161.031C233.387 161.841 234.077 163.351 234.077 163.351L234.057 163.361Z" fill="#374263"/>
<path d="M239.667 159.281C238.527 159.571 237.937 158.641 237.927 158.631L238.147 158.491C238.147 158.491 238.647 159.271 239.597 159.031L239.667 159.281Z" fill="white"/>
<path d="M238.947 160.471C237.847 160.681 237.307 159.891 237.287 159.851L237.507 159.711C237.507 159.711 237.977 160.391 238.907 160.211L238.957 160.461L238.947 160.471Z" fill="white"/>
<path d="M242.817 156.201C241.897 156.601 240.887 156.541 240.867 156.541L240.887 156.281C240.887 156.281 243.447 156.431 243.947 154.631L244.197 154.701C243.977 155.491 243.417 155.941 242.817 156.201Z" fill="white"/>
<path d="M245.891 156.702L240.68 162.013L240.866 162.195L246.077 156.885L245.891 156.702Z" fill="white"/>
<path d="M217.027 163.311L202.327 163.361C201.817 163.361 201.407 162.931 201.437 162.421C201.437 162.421 201.437 162.411 201.437 162.401C201.437 162.291 201.457 162.171 201.477 162.061C201.527 161.671 201.627 161.281 201.817 161.031C202.507 160.101 203.867 159.681 206.267 158.711C207.777 158.101 209.057 157.301 209.627 156.921C209.807 156.801 210.047 156.831 210.207 156.981C213.127 159.811 214.907 159.201 215.437 158.031C215.837 157.131 216.417 157.321 216.577 157.581C217.067 158.401 217.347 160.801 217.457 162.001C217.467 162.131 217.477 162.251 217.487 162.341C217.507 162.561 217.517 162.701 217.517 162.701C217.577 163.011 217.337 163.301 217.017 163.301L217.027 163.311Z" fill="#374263"/>
<path d="M207.107 160.251C206.057 159.751 206.217 158.671 206.217 158.661L206.467 158.701C206.467 158.701 206.347 159.611 207.217 160.021L207.107 160.251Z" fill="white"/>
<path d="M205.827 160.691C204.867 160.151 204.967 159.221 204.967 159.181L205.217 159.211C205.217 159.211 205.137 160.021 205.947 160.471L205.827 160.691Z" fill="white"/>
<path d="M214.117 160.021C213.137 160.021 212.237 159.581 212.227 159.571L212.347 159.341C212.347 159.341 214.607 160.461 215.747 159.031L215.947 159.191C215.447 159.821 214.767 160.011 214.127 160.021H214.117Z" fill="white"/>
<path d="M215.711 162.165L207.141 162.197L207.142 162.457L215.712 162.425L215.711 162.165Z" fill="white"/>
<path d="M206.041 162.211L204.011 162.218L204.012 162.478L206.042 162.471L206.041 162.211Z" fill="white"/>
<path d="M215.497 92.7607C216.857 93.3207 218.337 93.8107 219.857 94.2207C221.987 91.8307 226.677 87.5307 227.117 77.5107L215.487 92.7607H215.497Z" fill="#D1D1D1"/>
<path d="M210.787 95.2507C224.727 92.0907 227.127 77.5007 227.127 77.5007C227.127 77.5007 224.827 71.0807 222.007 70.8507H221.927C219.107 70.6107 216.677 72.7707 216.537 75.6007C216.287 80.6607 215.287 86.9607 208.997 90.6907L210.787 95.2607V95.2507Z" fill="white"/>
<path d="M209.097 90.8605L208.897 90.5205C214.697 87.0905 215.497 81.5105 216.197 76.5905C216.247 76.2505 216.297 75.9105 216.347 75.5805C216.607 73.8605 217.477 69.6605 220.097 67.7705L220.327 68.0905C217.837 69.8905 216.987 73.9605 216.737 75.6305C216.687 75.9605 216.637 76.3005 216.587 76.6405C215.907 81.4005 215.057 87.3305 209.097 90.8605Z" fill="#2E4882"/>
<path d="M223.057 87.3007L222.757 87.0407C225.157 84.2907 226.827 78.3007 226.847 78.2407L227.237 78.3507C227.167 78.6007 225.527 84.4907 223.067 87.3007H223.057Z" fill="#2E4882"/>
<path d="M219.097 98.6005C218.977 98.5405 216.187 97.1205 215.827 94.5805L216.227 94.5205C216.557 96.8505 219.257 98.2205 219.287 98.2405L219.107 98.6005H219.097Z" fill="white"/>
<path d="M205.477 95.2008C205.507 95.3208 203.037 95.8308 203.177 96.2208C203.377 96.7408 205.357 95.8008 205.467 96.0308C205.517 96.1408 204.757 96.3508 204.327 96.5308C204.087 96.6308 204.127 96.8408 204.307 96.8608C206.137 97.0408 208.737 95.1508 209.047 95.0808C209.577 94.9708 210.087 94.8508 210.587 94.7308L209.267 91.3408C209.017 91.5208 208.757 91.6808 208.497 91.8408C208.167 92.0408 207.227 92.6008 206.847 92.6108C206.487 92.6208 204.537 92.4208 204.537 92.8408C204.537 93.2808 205.907 93.1308 205.837 93.4708C205.797 93.6808 203.117 94.0108 203.317 94.5008C203.447 94.8208 205.037 94.4008 205.047 94.5908C205.047 94.7708 202.977 94.8808 203.147 95.3608C203.317 95.8708 205.437 94.9508 205.497 95.1908L205.477 95.2008Z" fill="#FFBB8D"/>
<path d="M165.377 121.36L161.187 138.02C161.187 138.02 161.187 138.11 161.207 138.15C161.237 138.19 161.267 138.22 161.307 138.23L166.307 139.49C166.357 139.5 166.407 139.49 166.447 139.47C166.487 139.44 166.517 139.4 166.517 139.35L169.027 122.27C169.037 122.18 168.987 122.1 168.897 122.08L165.577 121.25C165.487 121.23 165.387 121.28 165.367 121.38L165.377 121.36Z" fill="#5A8AD1"/>
<path d="M165.177 122.021L155.727 119.651L156.637 116.041C157.197 113.811 159.597 112.491 161.997 113.081L162.757 113.271C163.897 113.561 164.877 114.241 165.507 115.201C166.147 116.181 166.357 117.321 166.077 118.411L165.167 122.021H165.177ZM157.547 118.561L164.087 120.201L164.627 118.041C164.797 117.361 164.667 116.651 164.257 116.031C163.837 115.391 163.177 114.931 162.397 114.731L161.637 114.541C160.047 114.141 158.457 114.981 158.097 116.411L157.557 118.571L157.547 118.561Z" fill="#374963"/>
<path d="M144.557 133.831C144.557 133.831 144.547 133.931 144.557 133.971C144.577 134.011 144.617 134.041 144.667 134.061L161.297 138.231C161.387 138.251 161.467 138.211 161.497 138.121L167.347 121.881C167.347 121.881 167.367 121.781 167.347 121.741C167.327 121.701 167.287 121.671 167.237 121.651L150.607 117.471C150.517 117.451 150.437 117.501 150.397 117.581L144.547 133.821L144.557 133.831Z" fill="#6DA1F0"/>
<path d="M162.977 122.911L153.527 120.541L154.777 115.571C155.047 114.481 155.767 113.571 156.797 113.021C157.807 112.471 158.987 112.331 160.137 112.621L160.897 112.811C162.037 113.101 163.017 113.781 163.647 114.741C164.287 115.721 164.497 116.861 164.217 117.941L162.967 122.911H162.977ZM155.347 119.451L161.887 121.091L162.767 117.581C162.937 116.901 162.807 116.191 162.397 115.571C161.977 114.931 161.307 114.471 160.537 114.271L159.777 114.081C158.997 113.881 158.197 113.981 157.517 114.341C156.857 114.701 156.407 115.261 156.237 115.941L155.357 119.451H155.347Z" fill="#374963"/>
<path d="M184.927 99.6906L176.147 127.591C176.117 127.681 176.167 127.771 176.257 127.801L182.977 129.921C182.977 129.921 183.067 129.921 183.117 129.901C183.157 129.881 183.187 129.841 183.197 129.791L189.727 101.201C189.747 101.111 189.687 101.011 189.607 101.001L185.137 99.5806C185.137 99.5806 185.047 99.5706 185.007 99.5806C184.967 99.6006 184.937 99.6406 184.917 99.6806L184.927 99.6906Z" fill="#7CA8D1"/>
<path d="M183.597 99.2804L183.167 99.1504L184.357 95.3604C184.707 94.2604 184.597 93.0804 184.057 92.0504C183.517 91.0204 182.617 90.2604 181.517 89.9104L180.597 89.6205C178.307 88.9005 175.867 90.1804 175.147 92.4604L173.957 96.2504L173.527 96.1205L174.717 92.3304C175.097 91.1104 175.937 90.1204 177.077 89.5204C178.217 88.9304 179.517 88.8104 180.727 89.1904L181.647 89.4805C182.867 89.8605 183.857 90.7005 184.457 91.8405C185.047 92.9805 185.167 94.2804 184.787 95.4904L183.597 99.2804Z" fill="#323232"/>
<path d="M153.777 120.531C153.777 120.531 153.757 120.631 153.777 120.671C153.797 120.711 153.837 120.751 153.877 120.761L176.247 127.801C176.337 127.831 176.427 127.791 176.457 127.701L187.477 100.521C187.477 100.521 187.497 100.421 187.477 100.381C187.457 100.341 187.417 100.311 187.377 100.291L164.997 93.2506C164.907 93.2206 164.817 93.2606 164.787 93.3506L153.767 120.531H153.777Z" fill="#9AC1E5"/>
<path d="M180.797 100.361L180.367 100.231L182.117 94.6606C182.837 92.3706 181.557 89.9306 179.277 89.2106L178.357 88.9206C176.067 88.2006 173.627 89.4806 172.907 91.7606L171.157 97.3306L170.727 97.2006L172.477 91.6306C173.267 89.1106 175.967 87.7006 178.487 88.5006L179.407 88.7906C180.627 89.1706 181.617 90.0106 182.217 91.1506C182.807 92.2906 182.927 93.5906 182.547 94.8006L180.797 100.371V100.361Z" fill="#323232"/>
<path d="M157.387 102.571L161.057 119.351C161.057 119.351 161.097 119.431 161.137 119.461C161.177 119.481 161.217 119.491 161.267 119.481L166.297 118.381C166.347 118.371 166.387 118.341 166.407 118.301C166.427 118.261 166.437 118.211 166.417 118.161L161.057 101.751C161.027 101.671 160.947 101.621 160.857 101.631L157.517 102.361C157.427 102.381 157.367 102.471 157.387 102.571Z" fill="#F49B51"/>
<path d="M148.337 104.481L147.697 101.571C147.487 100.621 147.697 99.6407 148.287 98.8007C148.867 97.9707 149.757 97.3907 150.777 97.1707L151.547 97.0007C152.567 96.7807 153.617 96.9307 154.487 97.4407C155.367 97.9507 155.967 98.7607 156.177 99.7107L156.817 102.621L156.377 102.721L155.737 99.8107C155.557 98.9807 155.027 98.2807 154.257 97.8307C153.477 97.3807 152.547 97.2407 151.637 97.4407L150.867 97.6107C149.957 97.8107 149.167 98.3307 148.647 99.0707C148.137 99.8007 147.947 100.661 148.127 101.491L148.767 104.401L148.327 104.501L148.337 104.481Z" fill="#323232"/>
<path d="M144.297 123.01C144.297 123.01 144.327 123.1 144.367 123.13C144.407 123.16 144.457 123.17 144.507 123.16L161.257 119.49C161.347 119.47 161.397 119.39 161.387 119.3L159.397 102.15C159.397 102.1 159.367 102.05 159.327 102.03C159.287 102 159.247 102 159.187 102L142.437 105.67C142.347 105.69 142.297 105.77 142.297 105.86L144.287 123.01H144.297Z" fill="#FCC659"/>
<path d="M146.767 106.261L145.827 101.991C145.617 101.041 145.827 100.061 146.417 99.2206C146.997 98.3906 147.887 97.8107 148.907 97.5907L149.677 97.4206C150.697 97.2006 151.747 97.3506 152.627 97.8606C153.507 98.3706 154.107 99.1806 154.317 100.131L155.257 104.401L154.817 104.501L153.877 100.231C153.697 99.4007 153.167 98.7006 152.397 98.2506C151.617 97.8006 150.687 97.6606 149.767 97.8606L148.997 98.0306C148.087 98.2306 147.297 98.7507 146.777 99.4807C146.267 100.211 146.077 101.071 146.257 101.901L147.197 106.171L146.757 106.271L146.767 106.261Z" fill="#323232"/>
<path d="M180.337 153.53H138.867V153.01H180.337C181.157 153.01 181.877 152.53 182.207 151.74C182.477 151.1 182.507 150.14 181.777 149.38L174.677 139.88L175.087 139.57L182.167 149.04C182.907 149.8 183.107 150.92 182.677 151.93C182.267 152.9 181.367 153.51 180.327 153.51L180.337 153.53Z" fill="#424242"/>
<path d="M143.477 159.66C143.477 161.71 145.137 163.37 147.187 163.37C149.237 163.37 150.897 161.71 150.897 159.66C150.897 157.61 149.237 155.95 147.187 155.95C145.137 155.95 143.477 157.61 143.477 159.66Z" fill="#374263"/>
<path d="M143.747 153.63L145.977 160.16C146.157 160.7 146.667 161.04 147.217 161.04C147.357 161.04 147.497 161.02 147.637 160.97C148.317 160.74 148.687 159.99 148.447 159.31L146.507 153.63H143.747Z" fill="#6DA1F0"/>
<path d="M146.297 159.731C146.297 160.221 146.697 160.621 147.177 160.621C147.657 160.621 148.067 160.221 148.067 159.731C148.067 159.241 147.667 158.851 147.177 158.851C146.687 158.851 146.297 159.251 146.297 159.731Z" fill="#374263"/>
<path d="M170.667 159.66C170.667 161.71 172.327 163.37 174.377 163.37C176.427 163.37 178.087 161.71 178.087 159.66C178.087 157.61 176.427 155.95 174.377 155.95C172.327 155.95 170.667 157.61 170.667 159.66Z" fill="#374263"/>
<path d="M170.937 153.63L173.167 160.16C173.347 160.7 173.857 161.04 174.407 161.04C174.547 161.04 174.687 161.02 174.827 160.97C175.507 160.74 175.877 159.99 175.637 159.31L173.697 153.63H170.937Z" fill="#6DA1F0"/>
<path d="M173.487 159.731C173.487 160.221 173.887 160.621 174.367 160.621C174.847 160.621 175.247 160.221 175.247 159.731C175.247 159.241 174.847 158.851 174.367 158.851C173.887 158.851 173.487 159.251 173.487 159.731Z" fill="#374263"/>
<path d="M190.237 112.15L189.757 111.96L196.547 94.6603L203.447 94.0303L203.497 94.5503L196.907 95.1503L190.237 112.15Z" fill="#424242"/>
<path d="M176.317 139.97C176.267 139.97 176.207 139.97 176.157 139.97L139.997 138.67C137.457 138.58 135.367 136.41 135.147 133.62L133.407 112.09L133.667 112.07L192.167 107.05L180.987 136.57C180.207 138.63 178.347 139.98 176.337 139.98L176.317 139.97ZM133.957 112.55L135.657 133.57C135.857 136.1 137.737 138.07 140.017 138.15L176.177 139.45C178.047 139.53 179.767 138.28 180.487 136.37L191.377 107.62L133.957 112.55Z" fill="#424242"/>
<path d="M178.131 128.924L135.383 130.312L135.4 130.832L178.148 129.444L178.131 128.924Z" fill="#424242"/>
<path d="M184.301 118.092L134.929 121.051L134.96 121.57L184.332 118.611L184.301 118.092Z" fill="#424242"/>
<path d="M180.143 108.288L169.888 139.043L170.382 139.208L180.637 108.453L180.143 108.288Z" fill="#424242"/>
<path d="M143.801 111.49L143.282 111.527L145.178 138.43L145.696 138.394L143.801 111.49Z" fill="#424242"/>
<path d="M167.647 109.379L161.645 138.905L162.155 139.009L168.156 109.483L167.647 109.379Z" fill="#424242"/>
<path d="M155.276 110.274L153.559 138.923L154.078 138.954L155.795 110.305L155.276 110.274Z" fill="#424242"/>
<path d="M201.117 96.5904L204.497 96.2604C205.547 96.1604 206.317 95.2204 206.217 94.1804C206.117 93.1304 205.177 92.3604 204.127 92.4604L200.747 92.7904C199.697 92.8904 198.927 93.8304 199.027 94.8704C199.127 95.9204 200.067 96.6904 201.107 96.5904H201.117Z" fill="#374263"/>
<path d="M66.2268 165.301C66.2268 166.251 73.2168 167.031 81.8368 167.031C90.4568 167.031 97.4468 166.261 97.4468 165.301C97.4468 165.281 97.4468 165.271 97.4468 165.251V160.581H66.2368V165.241C66.2368 165.241 66.2268 165.281 66.2268 165.301Z" fill="#F49B51"/>
<path d="M81.8468 162.36C90.468 162.36 97.4568 161.586 97.4568 160.63C97.4568 159.675 90.468 158.9 81.8468 158.9C73.2257 158.9 66.2368 159.675 66.2368 160.63C66.2368 161.586 73.2257 162.36 81.8468 162.36Z" fill="#FCC659"/>
<path d="M62.5369 159.671C62.5369 160.621 69.5269 161.401 78.1469 161.401C86.7669 161.401 93.7569 160.631 93.7569 159.671C93.7569 159.651 93.7569 159.641 93.7569 159.621V154.951H62.5469V159.611C62.5469 159.611 62.5369 159.651 62.5369 159.671Z" fill="#F49B51"/>
<path d="M78.1569 156.731C86.778 156.731 93.7669 155.956 93.7669 155.001C93.7669 154.045 86.778 153.271 78.1569 153.271C69.5357 153.271 62.5469 154.045 62.5469 155.001C62.5469 155.956 69.5357 156.731 78.1569 156.731Z" fill="#FCC659"/>
<path d="M66.2268 154.04C66.2268 154.99 73.2168 155.77 81.8368 155.77C90.4568 155.77 97.4468 155 97.4468 154.04C97.4468 154.02 97.4468 154.01 97.4468 153.99V149.32H66.2368V153.98C66.2368 153.98 66.2268 154.02 66.2268 154.04Z" fill="#F49B51"/>
<path d="M81.8468 151.09C90.468 151.09 97.4568 150.316 97.4568 149.36C97.4568 148.405 90.468 147.63 81.8468 147.63C73.2257 147.63 66.2368 148.405 66.2368 149.36C66.2368 150.316 73.2257 151.09 81.8468 151.09Z" fill="#FCC659"/>
<path d="M81.8368 167.21C88.1868 167.21 97.6368 166.7 97.6368 165.3H97.2668C97.2668 165.84 91.9668 166.84 81.8368 166.84C81.4668 166.84 81.1068 166.84 80.7368 166.84V167.21C81.0968 167.21 81.4668 167.21 81.8368 167.21Z" fill="#2E4882"/>
<path d="M75.6468 167.07L75.6668 166.7C74.0868 166.62 72.6368 166.52 71.3568 166.39L71.3168 166.76C72.5968 166.89 74.0568 166.99 75.6468 167.07Z" fill="#2E4882"/>
<path d="M88.0068 161.17C93.8768 160.64 93.8768 159.9 93.8768 159.65H93.5068C93.5068 159.83 92.5168 160.39 87.9768 160.8L88.0068 161.17Z" fill="#2E4882"/>
<path d="M78.0668 161.56C79.8268 161.56 81.5468 161.53 83.1868 161.46V161.09C80.2368 161.2 76.9868 161.22 73.9568 161.12V161.49C75.2868 161.53 76.6668 161.55 78.0568 161.55L78.0668 161.56Z" fill="#2E4882"/>
<path d="M70.0868 161.32L70.1068 160.95C68.4368 160.84 66.9868 160.7 65.7868 160.53L65.7368 160.9C66.9468 161.07 68.4068 161.21 70.0768 161.32H70.0868Z" fill="#2E4882"/>
<path d="M92.3368 150.841C97.5368 150.311 97.5368 149.641 97.5368 149.391H97.1668C97.1668 149.391 97.0368 149.991 92.2968 150.481L92.3368 150.851V150.841Z" fill="#2E4882"/>
<path d="M81.7468 151.291C83.5468 151.291 85.2968 151.261 86.9668 151.191V150.821C85.2868 150.891 83.5368 150.921 81.7468 150.921C78.5468 150.921 75.4668 150.811 72.8468 150.611L72.8168 150.981C75.4468 151.181 78.5268 151.291 81.7468 151.291Z" fill="#2E4882"/>
<path d="M60.6968 148.41C60.6968 149.36 67.6868 150.14 76.3068 150.14C84.9268 150.14 91.9168 149.37 91.9168 148.41C91.9168 148.39 91.9168 148.38 91.9168 148.36V143.69H60.7068V148.35C60.7068 148.35 60.6968 148.39 60.6968 148.41Z" fill="#F49B51"/>
<path d="M76.3068 145.46C84.928 145.46 91.9168 144.686 91.9168 143.73C91.9168 142.775 84.928 142 76.3068 142C67.6857 142 60.6968 142.775 60.6968 143.73C60.6968 144.686 67.6857 145.46 76.3068 145.46Z" fill="#FCC659"/>
<path d="M76.3069 144.89C83.3319 144.89 89.0269 144.371 89.0269 143.73C89.0269 143.09 83.3319 142.57 76.3069 142.57C69.2818 142.57 63.5869 143.09 63.5869 143.73C63.5869 144.371 69.2818 144.89 76.3069 144.89Z" fill="#F49B51"/>
<path d="M40.4368 137.62C31.7268 137.38 24.4768 144.25 24.2468 152.96C24.0068 161.67 30.8768 168.92 39.5868 169.15C48.2968 169.39 55.5468 162.52 55.7768 153.81C56.0168 145.1 49.1468 137.85 40.4368 137.62ZM52.6968 153.73C52.6068 157.12 51.1968 160.27 48.7368 162.6C46.2768 164.93 43.0568 166.17 39.6668 166.07C32.6668 165.88 27.1368 160.03 27.3268 153.03C27.4168 149.64 28.8268 146.49 31.2868 144.16C33.6568 141.91 36.7468 140.68 40.0068 140.68C40.1268 140.68 40.2368 140.68 40.3568 140.68C47.2368 140.86 52.7068 146.53 52.7068 153.37C52.7068 153.49 52.7068 153.6 52.7068 153.72L52.6968 153.73Z" fill="#FCC659"/>
<path d="M52.6968 153.38C52.6968 153.5 52.6968 153.61 52.6968 153.73C52.6068 157.12 51.1968 160.27 48.7368 162.6C46.2768 164.93 43.0568 166.17 39.6668 166.07C32.6668 165.88 27.1268 160.03 27.3268 153.03C27.4168 149.64 28.8268 146.49 31.2868 144.16C33.6568 141.91 36.7468 140.68 40.0068 140.68C40.1268 140.68 40.2368 140.68 40.3568 140.68C47.2368 140.87 52.7068 146.53 52.7068 153.37L52.6968 153.38Z" fill="#F49B51"/>
<path d="M39.1968 163.1V160.71C37.8268 160.69 36.4068 160.26 35.5768 159.67L36.1468 158.09C36.9968 158.66 38.2268 159.11 39.5568 159.11C41.2368 159.11 42.3668 158.14 42.3668 156.79C42.3668 155.44 41.4468 154.68 39.6968 153.98C37.2868 153.03 35.7968 151.95 35.7968 149.89C35.7968 147.83 37.1968 146.44 39.3668 146.08V143.69H40.8368V145.98C42.2568 146.03 43.2268 146.41 43.9068 146.81L43.3168 148.37C42.8168 148.09 41.8468 147.57 40.3368 147.57C38.5168 147.57 37.8268 148.66 37.8268 149.6C37.8268 150.83 38.7068 151.44 40.7568 152.3C43.1968 153.29 44.4268 154.52 44.4268 156.63C44.4268 158.5 43.1268 160.25 40.6868 160.65V163.11H39.1968V163.1Z" fill="#FCC659"/>
<path d="M52.1768 150.21C52.1468 150.11 52.1168 150 52.0868 149.9C51.0768 146.42 48.6268 143.55 45.3468 142.02L45.4968 141.71C48.8668 143.29 51.3868 146.23 52.4168 149.79C52.4568 149.92 52.4868 150.02 52.5068 150.13L52.1768 150.22V150.21Z" fill="#2E4882"/>
<path d="M45.3568 142.021C42.7268 140.791 39.7168 140.511 36.9068 141.241L36.8168 140.911C39.7068 140.161 42.7868 140.441 45.4968 141.711L45.3468 142.021H45.3568Z" fill="#2E4882"/>
<path d="M51.1468 159.88L50.8468 159.71C51.6868 158.27 52.2368 156.72 52.4568 155.09L52.7968 155.14C52.5668 156.81 52.0068 158.41 51.1368 159.88H51.1468Z" fill="#2E4882"/>
<path d="M50.2668 141.66C49.0468 140.59 47.6768 139.72 46.1968 139.08L46.3468 138.74C47.8668 139.4 49.2668 140.29 50.5068 141.38L50.2668 141.66Z" fill="#2E4882"/>
<path d="M48.9068 166.631L48.6968 166.321C52.8768 163.511 55.4468 158.831 55.5868 153.811C55.6668 150.691 54.8368 147.651 53.1668 145.031L53.4768 144.831C55.1868 147.521 56.0468 150.631 55.9568 153.821C55.8168 158.961 53.1868 163.751 48.9068 166.631Z" fill="#2E4882"/>
<path d="M87.2669 36.7206H70.0469C69.8769 36.7206 69.7369 36.5806 69.7369 36.4106C69.7369 36.2406 69.8769 36.1006 70.0469 36.1006H87.2669C87.4369 36.1006 87.5769 36.2406 87.5769 36.4106C87.5769 36.5806 87.4369 36.7206 87.2669 36.7206Z" fill="#E0E0E0"/>
<path d="M30.5768 144.46C31.8368 145.1 32.6968 146.08 33.2868 147.3C33.8768 146.07 34.7468 145.09 35.9968 144.45C34.7368 143.81 33.8768 142.83 33.2868 141.61C32.6968 142.84 31.8368 143.82 30.5768 144.46Z" fill="#FFE6A6"/>
<path d="M46.1268 161.34C46.8568 161.71 47.3568 162.28 47.6968 162.99C48.0368 162.28 48.5468 161.71 49.2768 161.33C48.5468 160.96 48.0468 160.39 47.6968 159.68C47.3568 160.39 46.8468 160.96 46.1268 161.34Z" fill="#FFE6A6"/>
<path d="M29.4968 158.41C30.2268 158.78 30.7268 159.35 31.0668 160.06C31.4068 159.35 31.9168 158.78 32.6468 158.4C31.9168 158.03 31.4168 157.46 31.0668 156.75C30.7268 157.46 30.2168 158.03 29.4968 158.41Z" fill="#FFE6A6"/>
</svg>
